<?xml version="1.0" encoding="UTF-8"?>
<svg version="1.1" xmlns="http://www.w3.org/2000/svg" width="500" height="500">
<path d="M0 0 C6.54295176 6.09435473 12.41743169 12.43193167 17.96679688 19.45166016 C19.50972275 21.39462422 21.07204778 23.32134074 22.6328125 25.25 C30.78923323 35.42412094 37.81031833 45.89856518 44.3359375 57.17578125 C45.32258313 58.8517589 46.30957123 60.52753497 47.296875 62.203125 C59.89479602 83.74530593 70.23620352 106.27150161 80.45703125 129.00341797 C82.21927654 132.92086301 83.99453523 136.83228438 85.7734375 140.7421875 C91.95527129 154.34322902 98.02113531 167.99057461 104.00320435 181.68069458 C128.89902474 246.06776512 128.89902474 246.06776512 167.3359375 302.17578125 C167.40610261 277.21897606 167.45896244 252.26218572 167.49137402 227.30530167 C167.50682508 215.71668444 167.52788094 204.1281286 167.56225586 192.53955078 C167.59221211 182.43576793 167.61152529 172.33202956 167.61820298 162.22820354 C167.62210469 156.88119801 167.63123753 151.53431969 167.65312767 146.18735504 C167.67359121 141.14770697 167.67975143 136.10823769 167.67526054 131.06855202 C167.67608135 129.22559193 167.68198789 127.38262544 167.69355392 125.53970146 C167.79614724 108.33916081 165.63328457 92.01425201 153.23828125 78.9140625 C147.48053845 73.65288068 140.93014253 70.33344577 133.81640625 67.25390625 C131.61372265 66.29651936 129.47243925 65.27142317 127.3359375 64.17578125 C127.6659375 63.51578125 127.9959375 62.85578125 128.3359375 62.17578125 C155.3959375 62.17578125 182.4559375 62.17578125 210.3359375 62.17578125 C210.3359375 63.16578125 210.3359375 64.15578125 210.3359375 65.17578125 C209.58570313 65.43230469 208.83546875 65.68882812 208.0625 65.953125 C194.61243436 70.98419489 186.1843572 79.85574567 180.0859375 92.67578125 C175.98687586 102.47270866 175.20196807 113.06243806 175.15512085 123.58027649 C175.14791633 124.37579223 175.14071182 125.17130798 175.13328898 125.99093026 C175.11075133 128.62976326 175.09506105 131.26858751 175.07958984 133.9074707 C175.06512276 135.81048801 175.05036487 137.71350313 175.03533936 139.61651611 C174.90548307 156.93325576 174.83926034 174.25061606 174.78749657 191.56774616 C174.748568 204.35348277 174.68012097 217.13834038 174.57294881 229.92369109 C174.49999054 238.93288832 174.46164619 247.9418455 174.44847071 256.95132607 C174.43962757 262.32432399 174.41555028 267.69623077 174.35380173 273.06890297 C174.29634639 278.12467478 174.28194131 283.17879837 174.29967499 288.23484802 C174.29880043 290.0827186 174.28268815 291.93065942 174.24962997 293.77823448 C174.06552343 304.63707844 174.8042515 311.56395784 182.12061501 319.88994122 C182.85167143 320.64426843 183.58272785 321.39859564 184.3359375 322.17578125 C185.30494453 323.31006193 186.27165781 324.44631348 187.234375 325.5859375 C190.57648649 329.1654208 190.57648649 329.1654208 193.94628906 332.71875 C195.2933333 334.13111121 196.62353922 335.55947265 197.953125 336.98828125 C205.07195412 344.4239722 212.86208114 350.37633012 221.3359375 356.17578125 C222.38523437 356.90925781 223.43453125 357.64273437 224.515625 358.3984375 C245.0119239 371.93225318 268.00010536 375.82600207 292.00366211 372.88745117 C295.8083579 372.4254906 299.49354033 372.05306996 303.3359375 372.17578125 C303.3359375 374.15578125 303.3359375 376.13578125 303.3359375 378.17578125 C250.27653044 387.12032941 199.42070313 376.94522094 155.3359375 346.17578125 C151.13628674 343.05833645 147.21358921 339.68594309 143.3359375 336.17578125 C141.96184 334.98723706 140.5869115 333.79965253 139.2109375 332.61328125 C137.91864975 331.46814842 136.62701501 330.32227837 135.3359375 329.17578125 C134.54574219 328.49 133.75554687 327.80421875 132.94140625 327.09765625 C87.20688126 286.91309666 59.74031821 224.55332939 36.375 169.6015625 C34.73589555 165.77493143 33.03823382 161.97463871 31.3359375 158.17578125 C27.48287801 164.53332941 23.88291268 170.94263667 20.6015625 177.609375 C16.50759023 185.8598032 12.31113897 194.05445101 8.0859375 202.23828125 C7.33681642 203.69090958 6.58771186 205.14354643 5.83862305 206.59619141 C0.68195594 216.59110722 -4.50805658 226.56829853 -9.71875 236.53515625 C-17.30132788 251.04407809 -24.81208036 265.59059265 -32.33007812 280.13305664 C-33.58596954 282.56225113 -34.84248408 284.99112157 -36.09960938 287.41967773 C-36.72005401 288.61832583 -37.34049673 289.81697491 -37.9609375 291.015625 C-38.26628418 291.60548691 -38.57163086 292.19534882 -38.88623047 292.80308533 C-40.76156921 296.42723565 -42.63173487 300.0540051 -44.49830627 303.68267822 C-45.98836615 306.57760147 -47.48297482 309.47017693 -48.9765625 312.36328125 C-49.5219165 313.42691895 -50.06727051 314.49055664 -50.62915039 315.58642578 C-51.3831311 317.04411377 -51.3831311 317.04411377 -52.15234375 318.53125 C-52.59102783 319.38356201 -53.02971191 320.23587402 -53.48168945 321.11401367 C-54.6640625 323.17578125 -54.6640625 323.17578125 -56.6640625 325.17578125 C-58.61294556 325.45425415 -58.61294556 325.45425415 -61.02197266 325.49462891 C-61.92275543 325.5144986 -62.82353821 325.53436829 -63.75161743 325.55484009 C-65.21261368 325.5721669 -65.21261368 325.5721669 -66.703125 325.58984375 C-68.19711319 325.61889297 -68.19711319 325.61889297 -69.72128296 325.64852905 C-72.910455 325.7084309 -76.09966293 325.75475263 -79.2890625 325.80078125 C-81.44793263 325.83895126 -83.60678738 325.87800241 -85.765625 325.91796875 C-91.06496784 326.01414095 -96.36440293 326.09915714 -101.6640625 326.17578125 C-100.63866867 326.55107971 -100.63866867 326.55107971 -99.59255981 326.93395996 C-82.07856938 333.35158755 -64.97666797 340.40063105 -47.9921875 348.1015625 C-10.24033285 365.63008123 -10.24033285 365.63008123 29.3359375 378.17578125 C30.2942749 378.41264648 30.2942749 378.41264648 31.27197266 378.65429688 C57.63989885 384.94377522 90.35075009 383.34917419 114.7109375 370.96875 C116.3359375 370.17578125 116.3359375 370.17578125 118.5859375 370.55078125 C119.4521875 370.86015625 119.4521875 370.86015625 120.3359375 371.17578125 C119.96944593 373.69624981 119.67785411 374.88024547 117.71972656 376.57275391 C117.02073242 376.99089355 116.32173828 377.4090332 115.6015625 377.83984375 C114.81040039 378.31744141 114.01923828 378.79503906 113.20410156 379.28710938 C112.34010742 379.78662109 111.47611328 380.28613281 110.5859375 380.80078125 C109.69358398 381.32349609 108.80123047 381.84621094 107.88183594 382.38476562 C80.65671202 398.07510948 51.48629285 407.83061156 19.81640625 400.203125 C-5.27488033 392.79683053 -26.89108678 379.13956056 -48.42578125 364.62890625 C-68.76470206 350.92730944 -88.22697449 339.21595432 -111.7890625 331.92578125 C-112.96927979 331.55598145 -112.96927979 331.55598145 -114.17333984 331.17871094 C-125.57545523 327.78692759 -136.99269354 326.8735731 -148.83984375 326.76171875 C-150.13101608 326.7423526 -151.42218842 326.72298645 -152.75248718 326.70303345 C-156.13720921 326.65236652 -159.52197035 326.61239724 -162.90686035 326.57489014 C-166.38005721 326.53443267 -169.85310072 326.48353403 -173.32617188 326.43359375 C-180.10535587 326.33761287 -186.88463908 326.25296707 -193.6640625 326.17578125 C-193.6640625 325.18578125 -193.6640625 324.19578125 -193.6640625 323.17578125 C-192.6121875 322.76328125 -191.5603125 322.35078125 -190.4765625 321.92578125 C-185.9624669 319.92356143 -182.6401162 318.33164396 -180.50390625 313.61328125 C-177.82569864 306.39459981 -176.5154209 300.342639 -176.52362061 292.63778687 C-176.52064948 291.76754462 -176.51767836 290.89730237 -176.5146172 290.00068915 C-176.50593248 287.07906301 -176.50442213 284.15747787 -176.50292969 281.23583984 C-176.49830128 279.14312655 -176.49327659 277.0504141 -176.48788452 274.95770264 C-176.474759 269.26736721 -176.46831503 263.57704359 -176.46387386 257.88669538 C-176.46094284 254.33069799 -176.45683793 250.77470381 -176.45236969 247.21870804 C-176.43869316 236.09040764 -176.42902777 224.96211461 -176.4251678 213.8338064 C-176.42068923 200.99280498 -176.40315127 188.15191012 -176.3741672 175.3109411 C-176.35253721 165.38297094 -176.34246278 155.45503073 -176.34112668 145.52703726 C-176.34007942 139.59889927 -176.33418859 133.67086142 -176.31630707 127.74274826 C-176.29980414 122.16297684 -176.29768176 116.5833806 -176.30644608 111.00359344 C-176.30721531 108.9598379 -176.30288881 106.91607286 -176.29298782 104.87234116 C-175.88634468 86.91010694 -175.88634468 86.91010694 -183.6640625 71.17578125 C-186.52555141 69.04488525 -189.46545458 67.29235546 -192.5390625 65.48828125 C-193.2403125 65.05515625 -193.9415625 64.62203125 -194.6640625 64.17578125 C-194.6640625 63.84578125 -194.6640625 63.51578125 -194.6640625 63.17578125 C-184.87265109 62.99320588 -175.08097482 62.82881688 -165.2890625 62.67578125 C-164.52966747 62.663904 -163.77027245 62.65202675 -162.98786545 62.63978958 C-132.06748242 62.16208252 -101.15022337 62.08928617 -70.2265625 62.11328125 C-69.11547371 62.11413727 -68.00438492 62.11499329 -66.85962677 62.11587524 C-53.1277557 62.12724287 -39.39590837 62.14728537 -25.6640625 62.17578125 C-26.6640625 65.17578125 -26.6640625 65.17578125 -28.3359375 66.1328125 C-29.02171875 66.41511719 -29.7075 66.69742188 -30.4140625 66.98828125 C-37.86704781 70.52844927 -40.9752952 76.6820872 -43.6640625 84.17578125 C-47.27334707 96.42156819 -46.80418749 109.21102888 -46.77758789 121.84423828 C-46.77730546 123.72746275 -46.77746484 125.61068734 -46.7780304 127.49391174 C-46.7783162 132.58201002 -46.77245449 137.67008451 -46.76545644 142.75817728 C-46.75918684 148.08462305 -46.75861625 153.41106942 -46.75743103 158.73751831 C-46.75432833 168.81303321 -46.74612928 178.88853721 -46.73608154 188.96404731 C-46.72488741 200.43927102 -46.71940165 211.91449525 -46.71438611 223.38972306 C-46.70394575 246.98508183 -46.68636691 270.58043093 -46.6640625 294.17578125 C-46.37667961 293.59890847 -46.08929672 293.02203569 -45.79320526 292.42768192 C-44.47953554 289.79193337 -43.16458367 287.15682645 -41.84960938 284.52172852 C-41.171492 283.16043697 -41.171492 283.16043697 -40.47967529 281.77164459 C-37.50288285 275.80931941 -34.42615636 269.92482692 -31.1640625 264.11328125 C-25.79100968 254.40433325 -20.71354603 244.55519987 -15.6640625 234.67578125 C-10.34652415 224.27405251 -4.96269098 213.93130033 0.70117188 203.71264648 C6.4322269 193.30287671 11.79532237 182.69926026 17.1953125 172.11523438 C17.7597406 171.01078224 17.7597406 171.01078224 18.33557129 169.88401794 C19.04018991 168.5046639 19.74334942 167.12456303 20.44470215 165.74354553 C20.76652466 165.11347092 21.08834717 164.4833963 21.41992188 163.83422852 C21.72953857 163.2229007 22.03915527 162.61157288 22.3581543 161.98171997 C23.3359375 160.17578125 23.3359375 160.17578125 24.50317383 158.39596558 C26.55791049 155.23004432 27.34425822 153.43677211 27.22265625 149.62255859 C26.37149389 146.313993 25.39174585 143.20854331 24.1484375 140.02734375 C23.70185791 138.87041016 23.25527832 137.71347656 22.79516602 136.52148438 C22.31362061 135.29365234 21.8320752 134.06582031 21.3359375 132.80078125 C20.32028317 130.17989783 19.31016692 127.55689689 18.30078125 124.93359375 C18.0468309 124.2752655 17.79288055 123.61693726 17.53123474 122.93865967 C15.20655309 116.89051115 13.04757592 110.78824652 10.8984375 104.67578125 C2.78882614 81.88841333 -6.83883183 59.79899461 -17.6640625 38.17578125 C-18.06189941 37.37221191 -18.45973633 36.56864258 -18.86962891 35.74072266 C-33.08089662 7.17650576 -54.58362407 -24.69727541 -86.13183594 -35.68359375 C-95.40197783 -38.30829265 -104.31509937 -38.13481006 -113.8515625 -37.94921875 C-116.25716279 -37.91411454 -118.66271507 -37.88342833 -121.06843567 -37.85787964 C-122.55313123 -37.84092564 -124.0377719 -37.81780227 -125.52226257 -37.78787231 C-127.23605246 -37.76260606 -128.95046489 -37.78819918 -130.6640625 -37.82421875 C-131.6640625 -38.82421875 -131.6640625 -38.82421875 -131.7890625 -41.32421875 C-131.6640625 -43.82421875 -131.6640625 -43.82421875 -130.6640625 -44.82421875 C-128.26148114 -45.06901006 -125.88602653 -45.25238261 -123.4765625 -45.38671875 C-122.75186768 -45.42772705 -122.02717285 -45.46873535 -121.28051758 -45.51098633 C-72.85963458 -48.0672533 -35.4122955 -32.34025093 0 0 Z M-136.19015503 72.99752808 C-143.04747754 83.13180369 -142.32993326 94.76479472 -142.40625 106.48046875 C-142.43407307 108.66927328 -142.46291703 110.858065 -142.49264526 113.04684448 C-142.58932156 121.08968001 -142.62983561 129.13250089 -142.6640625 137.17578125 C-142.66766344 137.9813125 -142.67126438 138.78684376 -142.67497444 139.61678505 C-142.79674152 167.02856315 -142.80841359 194.44015681 -142.79263473 221.85215259 C-142.78824579 230.35168676 -142.79142048 238.85120633 -142.79626 247.3507396 C-142.80078411 255.63112225 -142.80144785 263.91149853 -142.79882133 272.19188201 C-142.79726618 277.10233209 -142.79704573 282.01277216 -142.80035782 286.92322159 C-142.8032292 291.49234913 -142.80127471 296.06144877 -142.79546356 300.63057327 C-142.79413588 302.30725559 -142.79453022 303.98394024 -142.79672623 305.66062164 C-142.7994351 307.93687622 -142.79606103 310.21303966 -142.79104614 312.48928833 C-142.79066912 313.76425737 -142.79029209 315.03922642 -142.78990364 316.35283089 C-142.9865841 319.07823138 -142.9865841 319.07823138 -141.6640625 320.17578125 C-138.78667745 320.6088722 -135.9290644 320.97764718 -133.0390625 321.30078125 C-131.84603516 321.44966797 -131.84603516 321.44966797 -130.62890625 321.6015625 C-125.14219594 322.22320948 -119.69275472 322.74814829 -114.625 320.1171875 C-105.58039371 312.25328105 -102.43385545 300.7220292 -101.49392748 289.06592679 C-101.21978998 283.47672642 -101.25508667 277.88558735 -101.27587891 272.29125977 C-101.27180455 270.43177992 -101.26645787 268.5723025 -101.25994873 266.71282959 C-101.24637103 261.70241932 -101.25153427 256.69219614 -101.26108599 251.68178296 C-101.26873355 246.4130896 -101.26162282 241.14441122 -101.25692749 235.87571716 C-101.25148421 227.0303157 -101.25862345 218.18498961 -101.27294922 209.33959961 C-101.28926788 199.14668436 -101.28398709 188.95394924 -101.26747 178.76103836 C-101.25380827 169.97501615 -101.25195845 161.18904783 -101.25978601 152.40301841 C-101.2644375 147.17072886 -101.26515757 141.93852367 -101.25517654 136.7062397 C-101.2464408 131.78373 -101.25264811 126.86145002 -101.26985931 121.93896484 C-101.27378937 120.14403093 -101.27275073 118.34907732 -101.26607132 116.55415154 C-101.21575731 101.64656493 -101.57530852 84.22276601 -110.9765625 71.80078125 C-114.61403315 68.24790294 -118.07644295 65.61756995 -123.2265625 64.73828125 C-128.89031448 65.75485212 -132.743569 68.51616298 -136.19015503 72.99752808 Z " fill="#2D2BB3" transform="translate(196.6640625,65.82421875)"/>
<path d="M0 0 C6.54295176 6.09435473 12.41743169 12.43193167 17.96679688 19.45166016 C19.50972275 21.39462422 21.07204778 23.32134074 22.6328125 25.25 C30.78923323 35.42412094 37.81031833 45.89856518 44.3359375 57.17578125 C45.32258313 58.8517589 46.30957123 60.52753497 47.296875 62.203125 C59.89479602 83.74530593 70.23620352 106.27150161 80.45703125 129.00341797 C82.21927654 132.92086301 83.99453523 136.83228438 85.7734375 140.7421875 C91.95527129 154.34322902 98.02113531 167.99057461 104.00320435 181.68069458 C128.89902474 246.06776512 128.89902474 246.06776512 167.3359375 302.17578125 C167.40610261 277.21897606 167.45896244 252.26218572 167.49137402 227.30530167 C167.50682508 215.71668444 167.52788094 204.1281286 167.56225586 192.53955078 C167.59221211 182.43576793 167.61152529 172.33202956 167.61820298 162.22820354 C167.62210469 156.88119801 167.63123753 151.53431969 167.65312767 146.18735504 C167.67359121 141.14770697 167.67975143 136.10823769 167.67526054 131.06855202 C167.67608135 129.22559193 167.68198789 127.38262544 167.69355392 125.53970146 C167.79614724 108.33916081 165.63328457 92.01425201 153.23828125 78.9140625 C147.48053845 73.65288068 140.93014253 70.33344577 133.81640625 67.25390625 C131.61372265 66.29651936 129.47243925 65.27142317 127.3359375 64.17578125 C127.6659375 63.51578125 127.9959375 62.85578125 128.3359375 62.17578125 C155.3959375 62.17578125 182.4559375 62.17578125 210.3359375 62.17578125 C210.3359375 63.16578125 210.3359375 64.15578125 210.3359375 65.17578125 C209.58570313 65.43230469 208.83546875 65.68882812 208.0625 65.953125 C194.61243436 70.98419489 186.1843572 79.85574567 180.0859375 92.67578125 C175.98687586 102.47270866 175.20196807 113.06243806 175.15512085 123.58027649 C175.14791633 124.37579223 175.14071182 125.17130798 175.13328898 125.99093026 C175.11075133 128.62976326 175.09506105 131.26858751 175.07958984 133.9074707 C175.06512276 135.81048801 175.05036487 137.71350313 175.03533936 139.61651611 C174.90548307 156.93325576 174.83926034 174.25061606 174.78749657 191.56774616 C174.748568 204.35348277 174.68012097 217.13834038 174.57294881 229.92369109 C174.49999054 238.93288832 174.46164619 247.9418455 174.44847071 256.95132607 C174.43962757 262.32432399 174.41555028 267.69623077 174.35380173 273.06890297 C174.29634639 278.12467478 174.28194131 283.17879837 174.29967499 288.23484802 C174.29880043 290.0827186 174.28268815 291.93065942 174.24962997 293.77823448 C174.06552343 304.63707844 174.8042515 311.56395784 182.12061501 319.88994122 C182.85167143 320.64426843 183.58272785 321.39859564 184.3359375 322.17578125 C185.30494453 323.31006193 186.27165781 324.44631348 187.234375 325.5859375 C190.57648649 329.1654208 190.57648649 329.1654208 193.94628906 332.71875 C195.2933333 334.13111121 196.62353922 335.55947265 197.953125 336.98828125 C205.07195412 344.4239722 212.86208114 350.37633012 221.3359375 356.17578125 C222.38523437 356.90925781 223.43453125 357.64273437 224.515625 358.3984375 C245.0119239 371.93225318 268.00010536 375.82600207 292.00366211 372.88745117 C295.8083579 372.4254906 299.49354033 372.05306996 303.3359375 372.17578125 C303.3359375 374.15578125 303.3359375 376.13578125 303.3359375 378.17578125 C250.27653044 387.12032941 199.42070313 376.94522094 155.3359375 346.17578125 C151.13628674 343.05833645 147.21358921 339.68594309 143.3359375 336.17578125 C141.96184 334.98723706 140.5869115 333.79965253 139.2109375 332.61328125 C137.91864975 331.46814842 136.62701501 330.32227837 135.3359375 329.17578125 C134.54574219 328.49 133.75554687 327.80421875 132.94140625 327.09765625 C87.20688126 286.91309666 59.74031821 224.55332939 36.375 169.6015625 C34.73589555 165.77493143 33.03823382 161.97463871 31.3359375 158.17578125 C27.48287801 164.53332941 23.88291268 170.94263667 20.6015625 177.609375 C16.50759023 185.8598032 12.31113897 194.05445101 8.0859375 202.23828125 C7.33681642 203.69090958 6.58771186 205.14354643 5.83862305 206.59619141 C0.68195594 216.59110722 -4.50805658 226.56829853 -9.71875 236.53515625 C-12.98430653 242.78365184 -16.2316499 249.04154526 -19.4765625 255.30078125 C-20.05510986 256.41662598 -20.63365723 257.5324707 -21.22973633 258.68212891 C-24.35983238 264.72178857 -27.48513782 270.76388523 -30.60546875 276.80859375 C-43.38658276 301.56344652 -43.38658276 301.56344652 -49.6640625 313.17578125 C-50.3240625 312.84578125 -50.9840625 312.51578125 -51.6640625 312.17578125 C-48.6940625 305.90578125 -45.7240625 299.63578125 -42.6640625 293.17578125 C-43.9840625 295.15578125 -45.3040625 297.13578125 -46.6640625 299.17578125 C-47.6540625 299.17578125 -48.6440625 299.17578125 -49.6640625 299.17578125 C-49.73428967 273.63613947 -49.78711769 248.09651226 -49.81949902 222.55679321 C-49.83493699 210.6970089 -49.85596759 198.83728475 -49.89038086 186.97753906 C-49.92037744 176.63493304 -49.93965978 166.29237061 -49.94632798 155.94972229 C-49.95022291 150.47851155 -49.959312 145.00742548 -49.98125267 139.53625488 C-50.0017802 134.37512065 -50.00786377 129.21416114 -50.00338554 124.05298996 C-50.00420353 122.16978375 -50.01007143 120.28657103 -50.02167892 118.40340042 C-50.12375017 100.97256316 -49.61553999 82.25124742 -37.34765625 68.671875 C-35.6640625 67.17578125 -35.6640625 67.17578125 -32.6640625 66.17578125 C-32.6640625 65.51578125 -32.6640625 64.85578125 -32.6640625 64.17578125 C-39.2640625 64.17578125 -45.8640625 64.17578125 -52.6640625 64.17578125 C-52.6640625 63.84578125 -52.6640625 63.51578125 -52.6640625 63.17578125 C-43.64591929 62.03062021 -34.7359977 62.08106267 -25.6640625 62.17578125 C-26.6640625 65.17578125 -26.6640625 65.17578125 -28.3359375 66.1328125 C-29.02171875 66.41511719 -29.7075 66.69742188 -30.4140625 66.98828125 C-37.86704781 70.52844927 -40.9752952 76.6820872 -43.6640625 84.17578125 C-47.27334707 96.42156819 -46.80418749 109.21102888 -46.77758789 121.84423828 C-46.77730546 123.72746275 -46.77746484 125.61068734 -46.7780304 127.49391174 C-46.7783162 132.58201002 -46.77245449 137.67008451 -46.76545644 142.75817728 C-46.75918684 148.08462305 -46.75861625 153.41106942 -46.75743103 158.73751831 C-46.75432833 168.81303321 -46.74612928 178.88853721 -46.73608154 188.96404731 C-46.72488741 200.43927102 -46.71940165 211.91449525 -46.71438611 223.38972306 C-46.70394575 246.98508183 -46.68636691 270.58043093 -46.6640625 294.17578125 C-46.23298817 293.31047208 -46.23298817 293.31047208 -45.79320526 292.42768192 C-44.47953554 289.79193337 -43.16458367 287.15682645 -41.84960938 284.52172852 C-41.39753113 283.61420082 -40.94545288 282.70667313 -40.47967529 281.77164459 C-37.50288285 275.80931941 -34.42615636 269.92482692 -31.1640625 264.11328125 C-25.79100968 254.40433325 -20.71354603 244.55519987 -15.6640625 234.67578125 C-10.34652415 224.27405251 -4.96269098 213.93130033 0.70117188 203.71264648 C6.4322269 193.30287671 11.79532237 182.69926026 17.1953125 172.11523438 C17.7597406 171.01078224 17.7597406 171.01078224 18.33557129 169.88401794 C19.04018991 168.5046639 19.74334942 167.12456303 20.44470215 165.74354553 C20.76652466 165.11347092 21.08834717 164.4833963 21.41992188 163.83422852 C21.72953857 163.2229007 22.03915527 162.61157288 22.3581543 161.98171997 C23.3359375 160.17578125 23.3359375 160.17578125 24.50317383 158.39596558 C26.55791049 155.23004432 27.34425822 153.43677211 27.22265625 149.62255859 C26.37149389 146.313993 25.39174585 143.20854331 24.1484375 140.02734375 C23.70185791 138.87041016 23.25527832 137.71347656 22.79516602 136.52148438 C22.31362061 135.29365234 21.8320752 134.06582031 21.3359375 132.80078125 C20.32028317 130.17989783 19.31016692 127.55689689 18.30078125 124.93359375 C18.0468309 124.2752655 17.79288055 123.61693726 17.53123474 122.93865967 C15.20655309 116.89051115 13.04757592 110.78824652 10.8984375 104.67578125 C2.78882614 81.88841333 -6.83883183 59.79899461 -17.6640625 38.17578125 C-18.06189941 37.37221191 -18.45973633 36.56864258 -18.86962891 35.74072266 C-33.08089662 7.17650576 -54.58362407 -24.69727541 -86.13183594 -35.68359375 C-95.40197783 -38.30829265 -104.31509937 -38.13481006 -113.8515625 -37.94921875 C-116.25716279 -37.91411454 -118.66271507 -37.88342833 -121.06843567 -37.85787964 C-122.55313123 -37.84092564 -124.0377719 -37.81780227 -125.52226257 -37.78787231 C-127.23605246 -37.76260606 -128.95046489 -37.78819918 -130.6640625 -37.82421875 C-131.6640625 -38.82421875 -131.6640625 -38.82421875 -131.7890625 -41.32421875 C-131.6640625 -43.82421875 -131.6640625 -43.82421875 -130.6640625 -44.82421875 C-128.26148114 -45.06901006 -125.88602653 -45.25238261 -123.4765625 -45.38671875 C-122.75186768 -45.42772705 -122.02717285 -45.46873535 -121.28051758 -45.51098633 C-72.85963458 -48.0672533 -35.4122955 -32.34025093 0 0 Z " fill="#14134E" transform="translate(196.6640625,65.82421875)"/>
<path d="M0 0 C0 0.99 0 1.98 0 3 C-0.51949219 3.21914062 -1.03898437 3.43828125 -1.57421875 3.6640625 C-8.42180064 6.77775039 -12.16767389 10.54670077 -15.09399414 17.44604492 C-18.13124985 26.15016242 -17.68569684 35.19068863 -17.74609375 44.30078125 C-17.77416878 46.48937678 -17.80321929 48.67795995 -17.83311462 50.86653137 C-17.9299079 58.91088414 -17.9696356 66.95518782 -18 75 C-18.00311093 75.80602126 -18.00622187 76.61204252 -18.00942707 77.44248867 C-18.11241205 104.87261166 -18.1019374 132.30266442 -18.07203043 159.73291314 C-18.06062101 170.36740394 -18.05529612 181.00189559 -18.05032361 191.63639104 C-18.04000762 213.42426751 -18.02254167 235.21213296 -18 257 C-16.75863281 257.12117188 -15.51726563 257.24234375 -14.23828125 257.3671875 C-12.59631474 257.53607548 -10.95438977 257.7053676 -9.3125 257.875 C-8.49587891 257.95363281 -7.67925781 258.03226562 -6.83789062 258.11328125 C-2.55120808 258.56451099 1.05203036 259.16063076 5 261 C7.32706943 261.68821271 9.66092253 262.353776 12 263 C36.03945144 269.7803581 58.85464302 280.09946612 81.53515625 290.42431641 C116.40849614 306.5607613 116.40849614 306.5607613 153 318 C153.68384766 318.16081055 154.36769531 318.32162109 155.07226562 318.48730469 C180.5245263 324.14465869 207.08336807 322.4884088 231.35546875 313.3046875 C234.27635139 312.25905534 236.9485747 311.48585801 240 311 C240 311.66 240 312.32 240 313 C238.55737305 314.09399414 238.55737305 314.09399414 236.51171875 315.28515625 C235.75213867 315.72915771 234.99255859 316.17315918 234.20996094 316.63061523 C232.96134277 317.33939819 232.96134277 317.33939819 231.6875 318.0625 C230.83317383 318.54984619 229.97884766 319.03719238 229.09863281 319.53930664 C201.5822758 335.02418948 171.85787946 344.1443272 140.21484375 335.3828125 C133.28948267 333.21994665 126.73191593 330.29908923 120.23144531 327.09765625 C118.79174657 326.38946308 117.34608655 325.69320333 115.89355469 325.01171875 C102.4944787 318.72248439 90.44657855 310.44648272 78.21289062 302.19042969 C67.6850065 295.08794599 57.09355473 288.1978197 46 282 C45.3287207 281.62246582 44.65744141 281.24493164 43.96582031 280.85595703 C35.90755733 276.39167143 27.65465296 272.97634887 18.9375 270 C18.05650635 269.69666748 17.1755127 269.39333496 16.26782227 269.08081055 C11.2721931 267.45509322 7.28544625 266.91051096 2 267 C0.04812248 266.69931321 -1.89981815 266.37266948 -3.84472656 266.02978516 C-10.97735017 264.90145632 -17.96465507 264.65402103 -25.17578125 264.5859375 C-26.46695358 264.56657135 -27.75812592 264.5472052 -29.08842468 264.5272522 C-32.47314671 264.47658527 -35.85790785 264.43661599 -39.24279785 264.39910889 C-42.71599471 264.35865142 -46.18903822 264.30775278 -49.66210938 264.2578125 C-56.44129337 264.16183162 -63.22057658 264.07718582 -70 264 C-70 263.01 -70 262.02 -70 261 C-68.948125 260.5875 -67.89625 260.175 -66.8125 259.75 C-62.2984044 257.74778018 -58.9760537 256.15586271 -56.83984375 251.4375 C-54.16163614 244.21881856 -52.8513584 238.16685775 -52.85955811 230.46200562 C-52.85658698 229.59176337 -52.85361586 228.72152112 -52.8505547 227.8249079 C-52.84186998 224.90328176 -52.84035963 221.98169662 -52.83886719 219.06005859 C-52.83423878 216.9673453 -52.82921409 214.87463285 -52.82382202 212.78192139 C-52.8106965 207.09158596 -52.80425253 201.40126234 -52.79981136 195.71091413 C-52.79688034 192.15491674 -52.79277543 188.59892256 -52.78830719 185.04292679 C-52.77463066 173.91462639 -52.76496527 162.78633336 -52.7611053 151.65802515 C-52.75662673 138.81702373 -52.73908877 125.97612887 -52.7101047 113.13515985 C-52.68847471 103.20718969 -52.67840028 93.27924948 -52.67706418 83.35125601 C-52.67601692 77.42311802 -52.67012609 71.49508017 -52.65224457 65.56696701 C-52.63574164 59.98719559 -52.63361926 54.40759935 -52.64238358 48.82781219 C-52.64315281 46.78405665 -52.63882631 44.74029161 -52.62892532 42.69655991 C-52.22228218 24.73432569 -52.22228218 24.73432569 -60 9 C-62.86148891 6.869104 -65.80139208 5.11657421 -68.875 3.3125 C-69.57625 2.879375 -70.2775 2.44625 -71 2 C-71 1.67 -71 1.34 -71 1 C-35.855 0.505 -35.855 0.505 0 0 Z " fill="#1C1A6F" transform="translate(73,128)"/>
<path d="M0 0 C-1 3 -1 3 -2.671875 3.95703125 C-3.35765625 4.23933594 -4.0434375 4.52164063 -4.75 4.8125 C-12.20298531 8.35266802 -15.3112327 14.50630595 -18 22 C-21.60928457 34.24578694 -21.14012499 47.03524763 -21.11352539 59.66845703 C-21.11324296 61.5516815 -21.11340234 63.43490609 -21.1139679 65.31813049 C-21.1142537 70.40622877 -21.10839199 75.49430326 -21.10139394 80.58239603 C-21.09512434 85.9088418 -21.09455375 91.23528817 -21.09336853 96.56173706 C-21.09026583 106.63725196 -21.08206678 116.71275596 -21.07201904 126.78826606 C-21.06082491 138.26348977 -21.05533915 149.738714 -21.05032361 161.21394181 C-21.03988325 184.80930058 -21.02230441 208.40464968 -21 232 C-20.71261711 231.42312722 -20.42523422 230.84625444 -20.12914276 230.25190067 C-18.81547304 227.61615212 -17.50052117 224.9810452 -16.18554688 222.34594727 C-15.73346863 221.43841957 -15.28139038 220.53089188 -14.81561279 219.59586334 C-11.83882035 213.63353816 -8.76209386 207.74904567 -5.5 201.9375 C-0.12694718 192.228552 4.95051647 182.37941862 10 172.5 C15.31753835 162.09827126 20.70137152 151.75551908 26.36523438 141.53686523 C32.0962894 131.12709546 37.45938487 120.52347901 42.859375 109.93945312 C43.4238031 108.83500099 43.4238031 108.83500099 43.99963379 107.70823669 C44.70425241 106.32888265 45.40741192 104.94878178 46.10876465 103.56776428 C46.43058716 102.93768967 46.75240967 102.30761505 47.08398438 101.65844727 C47.39360107 101.04711945 47.70321777 100.43579163 48.0222168 99.80593872 C49 98 49 98 50.16723633 96.22018433 C52.20666192 93.07785424 53.00764828 91.26864117 52.89990234 87.48413086 C51.99035773 83.96266823 50.9148344 80.64567696 49.6015625 77.25390625 C49.36593597 76.63909897 49.13030945 76.02429169 48.88754272 75.39085388 C48.14019898 73.44535015 47.38288613 71.50391775 46.625 69.5625 C46.12431892 68.26523662 45.62431353 66.96771224 45.125 65.66992188 C42.57016645 59.0347732 42.57016645 59.0347732 39.97949219 52.41357422 C38.82613918 49.4488742 38 47.21291444 38 44 C38.66 44 39.32 44 40 44 C40.30703857 44.87624023 40.61407715 45.75248047 40.93041992 46.65527344 C42.09251669 49.96632172 43.25777206 53.27622521 44.42504883 56.58544922 C44.92562927 58.00656551 45.4250172 59.42810254 45.9230957 60.85009766 C46.64726709 62.91686676 47.37514237 64.98227316 48.10546875 67.046875 C48.34506317 67.72520386 48.58465759 68.40353271 48.83151245 69.10241699 C50.69068506 74.29666887 52.81004153 79.34407177 55.1105957 84.36035156 C56.63005071 88.86991719 56.4354283 91.89807503 54.68652344 96.32397461 C54.08988132 97.52301871 53.48012073 98.71559891 52.859375 99.90234375 C52.53592102 100.5431337 52.21246704 101.18392365 51.87921143 101.84413147 C50.84729851 103.88115981 49.79881475 105.90913186 48.75 107.9375 C48.06013389 109.29568403 47.37132156 110.65440385 46.68359375 112.01367188 C41.61728443 121.98022799 41.61728443 121.98022799 38.83300781 126.62719727 C37.18424587 129.66098073 36.55723962 131.67022848 36 135 C35.266119 136.71538536 34.47055181 138.40515154 33.62890625 140.0703125 C33.14252686 141.03864014 32.65614746 142.00696777 32.1550293 143.00463867 C31.36672729 144.54921753 31.36672729 144.54921753 30.5625 146.125 C30.01827393 147.20177002 29.47404785 148.27854004 28.91333008 149.38793945 C25.33697216 156.4408621 21.69475928 163.45747862 17.99121094 170.44433594 C14.21772144 177.56351511 10.51058464 184.71646196 6.8125 191.875 C6.17334139 193.11173582 5.53418122 194.34847085 4.89501953 195.58520508 C2.25858446 200.68753615 -0.37608559 205.79077762 -3.00976562 210.89453125 C-4.98481008 214.72180221 -6.96065571 218.54865836 -8.9375 222.375 C-9.4103241 223.2902092 -9.4103241 223.2902092 -9.8927002 224.22390747 C-14.52540103 233.18724839 -19.20177422 242.12404879 -24 251 C-24.66 250.67 -25.32 250.34 -26 250 C-23.03 243.73 -20.06 237.46 -17 231 C-18.32 232.98 -19.64 234.96 -21 237 C-21.99 237 -22.98 237 -24 237 C-24.07022717 211.46035822 -24.12305519 185.92073101 -24.15543652 160.38101196 C-24.17087449 148.52122765 -24.19190509 136.6615035 -24.22631836 124.80175781 C-24.25631494 114.45915179 -24.27559728 104.11658936 -24.28226548 93.77394104 C-24.28616041 88.3027303 -24.2952495 82.83164423 -24.31719017 77.36047363 C-24.3377177 72.1993394 -24.34380127 67.03837989 -24.33932304 61.87720871 C-24.34014103 59.9940025 -24.34600893 58.11078978 -24.35761642 56.22761917 C-24.45968767 38.79678191 -23.95147749 20.07546617 -11.68359375 6.49609375 C-10 5 -10 5 -7 4 C-7 3.34 -7 2.68 -7 2 C-13.6 2 -20.2 2 -27 2 C-27 1.67 -27 1.34 -27 1 C-17.98185679 -0.14516104 -9.0719352 -0.09471858 0 0 Z " fill="#0E0D87" transform="translate(171,128)"/>
<path d="M0 0 C0.66 0 1.32 0 2 0 C0.66617586 4.66838448 -0.72681874 8.37179774 -4 12 C-7.39809218 12.90953645 -10.73312958 12.83772778 -14.234375 12.8046875 C-15.22753723 12.81839386 -16.22069946 12.83210022 -17.24395752 12.84622192 C-20.41309653 12.883584 -23.58067164 12.87980274 -26.75 12.875 C-28.89976415 12.89312235 -31.0495075 12.91392358 -33.19921875 12.9375 C-38.46629937 12.98940851 -43.73268715 13.00755232 -49 13 C-48.31640411 13.25019897 -47.63280823 13.50039795 -46.92849731 13.75817871 C-29.41450688 20.1758063 -12.31260547 27.2248498 4.671875 34.92578125 C42.42372965 52.45429998 42.42372965 52.45429998 82 65 C82.6388916 65.15791016 83.2777832 65.31582031 83.93603516 65.47851562 C110.30396135 71.76799397 143.01481259 70.17339294 167.375 57.79296875 C169 57 169 57 171.25 57.375 C171.8275 57.58125 172.405 57.7875 173 58 C172.63350843 60.52046856 172.34191661 61.70446422 170.38378906 63.39697266 C169.68479492 63.8151123 168.98580078 64.23325195 168.265625 64.6640625 C167.47446289 65.14166016 166.68330078 65.61925781 165.86816406 66.11132812 C165.00416992 66.61083984 164.14017578 67.11035156 163.25 67.625 C162.35764648 68.14771484 161.46529297 68.67042969 160.54589844 69.20898438 C133.32077452 84.89932823 104.15035535 94.65483031 72.48046875 87.02734375 C47.38918217 79.62104928 25.77297572 65.96377931 4.23828125 51.453125 C-18.06062397 36.43115744 -39.12516067 24.68424926 -65 17 C-62 15 -62 15 -59.9855957 15.28857422 C-59.22335693 15.5413916 -58.46111816 15.79420898 -57.67578125 16.0546875 C-56.3923584 16.47584839 -56.3923584 16.47584839 -55.08300781 16.90551758 C-54.16874023 17.22544678 -53.25447266 17.54537598 -52.3125 17.875 C-50.89662598 18.36166138 -50.89662598 18.36166138 -49.45214844 18.8581543 C-40.89444211 21.88520761 -32.9258126 25.59835062 -25 30 C-24.08395996 30.49862549 -24.08395996 30.49862549 -23.14941406 31.00732422 C-12.7077697 36.73241479 -2.8758142 43.36709661 7 50 C33.9675427 68.09879497 62.11011123 86.4845383 95.6875 86.3125 C97.39715942 86.30512817 97.39715942 86.30512817 99.14135742 86.29760742 C122.88612332 85.96943184 145.04465885 77.06303639 164.56640625 63.62890625 C167 62 167 62 169 62 C169 61.34 169 60.68 169 60 C167.76765625 60.47050781 166.5353125 60.94101562 165.265625 61.42578125 C114.68637814 80.53372417 70.18241738 67.12765617 22.82228088 45.77896118 C17.70730309 43.46697293 12.59493351 41.14924554 7.48342896 38.82958984 C-12.27989666 29.870422 -32.25382741 20.82175776 -53.1640625 14.8671875 C-55.63052548 14.11297981 -57.74800671 13.24134264 -60 12 C-59.67 11.34 -59.34 10.68 -59 10 C-31.775 9.505 -31.775 9.505 -4 9 C-2.68 6.03 -1.36 3.06 0 0 Z " fill="#1816C6" transform="translate(144,379)"/>
<path d="M0 0 C19.14 0 38.28 0 58 0 C57.67 0.66 57.34 1.32 57 2 C40.83 2 24.66 2 8 2 C8 2.66 8 3.32 8 4 C8.86625 4.2475 9.7325 4.495 10.625 4.75 C22.38523005 9.10564076 31.62812519 19.35758523 37.1796875 30.33203125 C42.76391537 42.94749494 42.28367281 56.68776862 42.22705078 70.19262695 C42.22648556 72.09599807 42.22680539 73.99936962 42.22793579 75.90274048 C42.22850597 81.03201127 42.21680622 86.16118715 42.20278788 91.29043603 C42.19022436 96.66490708 42.18910561 102.03938067 42.18673706 107.41386414 C42.18053874 117.57429304 42.16415035 127.73467853 42.14403808 137.89508837 C42.12162762 149.46952872 42.11067274 161.04397121 42.10064721 172.61842787 C42.07978257 196.41230925 42.04463883 220.20615218 42 244 C41.01 244 40.02 244 39 244 C37.03848626 241.77449537 35.29910395 239.58109164 33.5625 237.1875 C33.03390381 236.4668335 32.50530762 235.74616699 31.96069336 235.00366211 C17.58075437 215.13672521 6.13782952 193.57954469 -3.96386719 171.26367188 C-5.240758 168.47400845 -6.54606738 165.69826733 -7.8515625 162.921875 C-13.7996654 150.24900319 -19.59892588 137.52292065 -25.1875 124.6875 C-25.6074826 123.72842239 -25.6074826 123.72842239 -26.03594971 122.74996948 C-26.83487786 120.92269662 -27.62655221 119.09225751 -28.41796875 117.26171875 C-29.09508911 115.69877075 -29.09508911 115.69877075 -29.78588867 114.10424805 C-31.09214864 110.76439372 -32.06650074 107.46033365 -33 104 C-30.0069223 106.55311405 -28.751295 109.3616365 -27.1796875 112.93359375 C-26.38389282 114.7273645 -26.38389282 114.7273645 -25.57202148 116.55737305 C-25.00629867 117.85072727 -24.44062597 119.14410342 -23.875 120.4375 C-23.28727737 121.76700927 -22.69881117 123.09619008 -22.10961914 124.42504883 C-20.93696613 127.07170735 -19.76750176 129.71973264 -18.60107422 132.36914062 C4.09093803 189.84359101 4.09093803 189.84359101 39 240 C39.07016511 215.04319481 39.12302494 190.08640447 39.15543652 165.12952042 C39.17088758 153.54090319 39.19194344 141.95234735 39.22631836 130.36376953 C39.25627461 120.25998668 39.27558779 110.15624831 39.28226548 100.05242229 C39.28616719 94.70541676 39.29530003 89.35853844 39.31719017 84.01157379 C39.33765371 78.97192572 39.34381393 73.93245644 39.33932304 68.89277077 C39.34014385 67.04981068 39.34605039 65.20684419 39.35761642 63.36392021 C39.46020974 46.16337956 37.29734707 29.83847076 24.90234375 16.73828125 C19.14460095 11.47709943 12.59420503 8.15766452 5.48046875 5.078125 C3.27778515 4.12073811 1.13650175 3.09564192 -1 2 C-0.67 1.34 -0.34 0.68 0 0 Z " fill="#000001" transform="translate(325,128)"/>
<path d="M0 0 C3.25076539 2.92963258 4.96928708 5.58821454 6.69921875 9.59375 C7.18165039 10.69678467 7.66408203 11.79981934 8.16113281 12.9362793 C8.66483398 14.11230713 9.16853516 15.28833496 9.6875 16.5 C10.21996849 17.72287427 10.75350784 18.94528279 11.28808594 20.16723633 C12.36121771 22.62232483 13.43027554 25.07911389 14.49560547 27.53759766 C19.95137904 40.09419953 25.62461664 52.50048723 31.83984375 64.69873047 C33.17303533 67.34323042 34.47786373 70.00084205 35.78125 72.66015625 C50.57637898 102.76525859 68.06142146 130.57271784 90 156 C90.61617188 156.72960937 91.23234375 157.45921875 91.8671875 158.2109375 C111.18138588 180.85198344 135.90656571 197.16668244 162 211 C159 212 159 212 155.62109375 210.55078125 C154.21918608 209.81864181 152.82513168 209.07134888 151.4375 208.3125 C150.68734619 207.90676758 149.93719238 207.50103516 149.16430664 207.08300781 C126.21823809 194.42015092 103.6046047 177.44441953 87 157 C86.06318298 155.88614397 85.12560485 154.77292787 84.1875 153.66015625 C49.38543647 112.0218775 26.82125149 62.23930812 5 13 C4.20856069 11.21864897 3.41692447 9.4373854 2.625 7.65625 C2.08333333 6.4375 1.54166667 5.21875 1 4 C-4.13652035 12.47525858 -8.67565069 21.14011167 -13.03271484 30.03320312 C-14.67094548 33.36424452 -16.33695732 36.68128955 -18 40 C-18.66 40 -19.32 40 -20 40 C-18.28704136 33.8479717 -15.22441072 28.42397974 -12.25 22.8125 C-11.73695313 21.83474609 -11.22390625 20.85699219 -10.6953125 19.84960938 C-7.19544582 13.19722459 -3.61673876 6.58947824 0 0 Z " fill="#000043" transform="translate(227,220)"/>
<path d="M0 0 C-1 3 -1 3 -2.671875 3.95703125 C-3.35765625 4.23933594 -4.0434375 4.52164063 -4.75 4.8125 C-12.20298531 8.35266802 -15.3112327 14.50630595 -18 22 C-21.65338111 34.3954002 -21.13973896 47.34479615 -21.11352539 60.12744141 C-21.11324298 62.05992634 -21.1134023 63.99241137 -21.1139679 65.92489624 C-21.11425377 71.1472875 -21.108391 76.3696556 -21.10139394 81.59204149 C-21.09512542 87.05862338 -21.09455384 92.52520585 -21.09336853 97.99179077 C-21.09026551 108.33292529 -21.08206603 118.67404919 -21.07201904 129.01517904 C-21.0608259 140.79269449 -21.05533939 152.57021047 -21.05032361 164.34772992 C-21.03988254 188.56515916 -21.02230307 212.78257898 -21 237 C-21.99 237 -22.98 237 -24 237 C-24.07022717 211.46035822 -24.12305519 185.92073101 -24.15543652 160.38101196 C-24.17087449 148.52122765 -24.19190509 136.6615035 -24.22631836 124.80175781 C-24.25631494 114.45915179 -24.27559728 104.11658936 -24.28226548 93.77394104 C-24.28616041 88.3027303 -24.2952495 82.83164423 -24.31719017 77.36047363 C-24.3377177 72.1993394 -24.34380127 67.03837989 -24.33932304 61.87720871 C-24.34014103 59.9940025 -24.34600893 58.11078978 -24.35761642 56.22761917 C-24.45968767 38.79678191 -23.95147749 20.07546617 -11.68359375 6.49609375 C-10 5 -10 5 -7 4 C-7 3.34 -7 2.68 -7 2 C-13.6 2 -20.2 2 -27 2 C-27 1.67 -27 1.34 -27 1 C-17.98185679 -0.14516104 -9.0719352 -0.09471858 0 0 Z " fill="#131299" transform="translate(171,128)"/>
<path d="M0 0 C14.85 0 29.7 0 45 0 C45 0.33 45 0.66 45 1 C33.34041229 2.23195644 21.70920439 2.10247722 10 2 C11.24931523 4.69920859 12.30691812 6.3311485 14.375 8.5625 C22.73852617 18.66115739 21.56503417 31.50282754 21.50170898 43.82641602 C21.5054967 45.93001669 21.51100045 48.03361487 21.51808167 50.13720703 C21.53199355 55.82516918 21.52089674 61.51282739 21.50437045 67.20077252 C21.4904754 73.16582785 21.49698503 79.13086632 21.50050354 85.09593201 C21.50320193 95.11014682 21.48976122 105.12424151 21.46655273 115.13842773 C21.43993817 126.70205239 21.43819966 138.26547638 21.4499411 149.82912117 C21.46073443 160.97291341 21.45452004 172.11663334 21.44038582 183.26041985 C21.43464027 187.99422867 21.43469742 192.72798433 21.43945122 197.4617939 C21.44423693 203.03922936 21.43405325 208.61644613 21.41249657 214.19384003 C21.40695051 216.23597667 21.40644327 218.27813441 21.41144943 220.32027245 C21.45369533 240.0307184 21.45369533 240.0307184 18 248 C17.566875 249.0725 17.13375 250.145 16.6875 251.25 C15 254 15 254 9 260 C21.54 260.33 34.08 260.66 47 261 C47 261.66 47 262.32 47 263 C31.82 263 16.64 263 1 263 C1 262.01 1 261.02 1 260 C2.051875 259.5875 3.10375 259.175 4.1875 258.75 C8.7015956 256.74778018 12.0239463 255.15586271 14.16015625 250.4375 C16.83836386 243.21881856 18.1486416 237.16685775 18.14044189 229.46200562 C18.14341302 228.59176337 18.14638414 227.72152112 18.1494453 226.8249079 C18.15813002 223.90328176 18.15964037 220.98169662 18.16113281 218.06005859 C18.16576122 215.9673453 18.17078591 213.87463285 18.17617798 211.78192139 C18.1893035 206.09158596 18.19574747 200.40126234 18.20018864 194.71091413 C18.20311966 191.15491674 18.20722457 187.59892256 18.21169281 184.04292679 C18.22536934 172.91462639 18.23503473 161.78633336 18.2388947 150.65802515 C18.24337327 137.81702373 18.26091123 124.97612887 18.2898953 112.13515985 C18.31152529 102.20718969 18.32159972 92.27924948 18.32293582 82.35125601 C18.32398308 76.42311802 18.32987391 70.49508017 18.34775543 64.56696701 C18.36425836 58.98719559 18.36638074 53.40759935 18.35761642 47.82781219 C18.35684719 45.78405665 18.36117369 43.74029161 18.37107468 41.69655991 C18.77771782 23.73432569 18.77771782 23.73432569 11 8 C8.13851109 5.869104 5.19860792 4.11657421 2.125 2.3125 C1.42375 1.879375 0.7225 1.44625 0 1 C0 0.67 0 0.34 0 0 Z " fill="#00002B" transform="translate(2,129)"/>
<path d="M0 0 C0 0.33 0 0.66 0 1 C-0.90093384 1.12060791 -0.90093384 1.12060791 -1.82006836 1.24365234 C-4.52724957 1.61139462 -7.23229515 1.9930023 -9.9375 2.375 C-11.35579102 2.56449219 -11.35579102 2.56449219 -12.80273438 2.7578125 C-14.15141602 2.95117188 -14.15141602 2.95117188 -15.52734375 3.1484375 C-16.77632446 3.32125244 -16.77632446 3.32125244 -18.05053711 3.49755859 C-19.01552124 3.74626709 -19.01552124 3.74626709 -20 4 C-20.33 4.66 -20.66 5.32 -21 6 C-20.35417969 5.9278125 -19.70835938 5.855625 -19.04296875 5.78125 C-1.32750194 4.03636134 16.86056117 3.33691886 33 12 C33.763125 12.39703125 34.52625 12.7940625 35.3125 13.203125 C43.00617379 17.49382769 49.46120441 23.15902054 56 29 C56.65871094 29.58523437 57.31742187 30.17046875 57.99609375 30.7734375 C68.33490728 40.54200472 76.45365386 53.02598417 84 65 C84.64195312 66.01449219 85.28390625 67.02898437 85.9453125 68.07421875 C90.85517645 76.26074923 94.88782308 84.86763062 98.9375 93.5 C99.23089264 94.12063324 99.52428528 94.74126648 99.8265686 95.38070679 C100.67280063 97.17692012 101.50651029 98.97901629 102.33984375 100.78125 C102.82831787 101.83376953 103.31679199 102.88628906 103.82006836 103.97070312 C105.00116296 107.00298572 105.5884975 109.78022619 106 113 C103.651564 110.06552676 101.98999851 107.13892258 100.3984375 103.73828125 C99.91310547 102.71033447 99.42777344 101.6823877 98.92773438 100.62329102 C98.15913086 98.98444946 98.15913086 98.98444946 97.375 97.3125 C81.41244357 63.77144243 61.3466035 25.89504658 25 11 C14.97282244 7.50814553 5.26566417 7.67156856 -5.1875 7.875 C-7.59310029 7.91010421 -9.99865257 7.94079042 -12.40437317 7.96633911 C-13.88906873 7.98329311 -15.3737094 8.00641648 -16.85820007 8.03634644 C-18.57198996 8.06161269 -20.28640239 8.03601957 -22 8 C-23 7 -23 7 -23.125 4.5 C-23 2 -23 2 -22 1 C-19.43207959 0.76009048 -16.88617827 0.57655613 -14.3125 0.4375 C-13.24999023 0.37272461 -13.24999023 0.37272461 -12.16601562 0.30664062 C-8.10502063 0.07040546 -4.06966073 -0.0448624 0 0 Z " fill="#090891" transform="translate(88,20)"/>
<path d="M0 0 C0.66 0 1.32 0 2 0 C2.30703857 0.87624023 2.61407715 1.75248047 2.93041992 2.65527344 C4.09251669 5.96632172 5.25777206 9.27622521 6.42504883 12.58544922 C6.92562927 14.00656551 7.4250172 15.42810254 7.9230957 16.85009766 C8.64726684 18.91686603 9.3752836 20.98222411 10.10546875 23.046875 C10.34433807 23.72447876 10.5832074 24.40208252 10.82931519 25.10021973 C12.70141046 30.33851442 14.85977 35.41322 17.20825195 40.45800781 C18.86766408 45.78572878 16.27752272 49.77649694 13.82421875 54.49609375 C13.34298805 55.42709648 13.34298805 55.42709648 12.85203552 56.37690735 C11.80355774 58.40048661 10.74580223 60.41904382 9.6875 62.4375 C8.95070664 63.85368382 8.21421859 65.27002652 7.47802734 66.68652344 C3.00154068 75.27868001 -1.58857479 83.80220689 -6.27416992 92.28222656 C-12.3016452 103.2588627 -17.94760137 114.43530325 -23.65551758 125.58010864 C-24.03216553 126.31550873 -24.40881348 127.05090881 -24.796875 127.80859375 C-25.16772217 128.5327951 -25.53856934 129.25699646 -25.9206543 130.00314331 C-29.44047532 136.87105056 -33.02655307 143.7026718 -36.63671875 150.5234375 C-39.51356102 155.96008733 -42.34767747 161.41895268 -45.1875 166.875 C-49.39411762 174.95226689 -53.64118913 183.00373077 -58 191 C-59 188 -59 188 -58.38598633 186.17260742 C-57.86427856 185.14937378 -57.86427856 185.14937378 -57.33203125 184.10546875 C-56.94015625 183.32743896 -56.54828125 182.54940918 -56.14453125 181.74780273 C-55.70496094 180.90290283 -55.26539063 180.05800293 -54.8125 179.1875 C-54.12800781 177.84570679 -54.12800781 177.84570679 -53.4296875 176.47680664 C-49.75991459 169.33554293 -45.90858867 162.29770402 -42.02661133 155.27026367 C-37.17503177 146.43614631 -32.58643834 137.47346115 -28 128.5 C-22.68246165 118.09827126 -17.29862848 107.75551908 -11.63476562 97.53686523 C-5.9037106 87.12709546 -0.54061513 76.52347901 4.859375 65.93945312 C5.4238031 64.83500099 5.4238031 64.83500099 5.99963379 63.70823669 C6.70425241 62.32888265 7.40741192 60.94878178 8.10876465 59.56776428 C8.43058716 58.93768967 8.75240967 58.30761505 9.08398438 57.65844727 C9.54840942 56.74145554 9.54840942 56.74145554 10.0222168 55.80593872 C11 54 11 54 12.16723633 52.22018433 C14.20666192 49.07785424 15.00764828 47.26864117 14.89990234 43.48413086 C13.99035773 39.96266823 12.9148344 36.64567696 11.6015625 33.25390625 C11.36593597 32.63909897 11.13030945 32.02429169 10.88754272 31.39085388 C10.14019898 29.44535015 9.38288613 27.50391775 8.625 25.5625 C8.12431892 24.26523662 7.62431353 22.96771224 7.125 21.66992188 C4.57016645 15.0347732 4.57016645 15.0347732 1.97949219 8.41357422 C0.82613918 5.4488742 0 3.21291444 0 0 Z " fill="#020280" transform="translate(209,172)"/>
<path d="M0 0 C4.97886039 1.65962013 7.37905932 6.12106747 10.55029297 10.16308594 C12.12298409 12.15583231 13.71928496 14.12835228 15.31640625 16.1015625 C23.46861102 26.26438044 30.48022768 36.73288814 37 48 C37.98664563 49.67597765 38.97363373 51.35175372 39.9609375 53.02734375 C52.12929767 73.83498462 62.20512548 95.54945391 72.07650757 117.50907898 C74.39221061 122.65904239 76.72744246 127.79984632 79.0703125 132.9375 C80.04567761 135.08063919 81.02057559 137.22399 81.99520874 139.36746216 C82.62056284 140.74124827 83.24703814 142.11452459 83.87466431 143.48727417 C84.74156505 145.38447558 85.60376721 147.28374341 86.46484375 149.18359375 C86.955896 150.26181396 87.44694824 151.34003418 87.95288086 152.45092773 C89 155 89 155 89 157 C88.34 157 87.68 157 87 157 C86.68474365 156.29431885 86.3694873 155.5886377 86.04467773 154.86157227 C77.10971291 134.87129131 68.11316849 114.90973038 59 95 C58.55672363 94.02788574 58.11344727 93.05577148 57.65673828 92.05419922 C49.0951667 73.33171918 39.329913 55.19888385 28 38 C27.62810547 37.43522949 27.25621094 36.87045898 26.87304688 36.28857422 C19.22988381 24.78001961 10.81924474 13.75318277 1.36328125 3.671875 C0 2 0 2 0 0 Z " fill="#000043" transform="translate(204,75)"/>
<path d="M0 0 C2.9930777 2.55311405 4.248705 5.3616365 5.8203125 8.93359375 C6.61610718 10.7273645 6.61610718 10.7273645 7.42797852 12.55737305 C7.99370133 13.85072727 8.55937403 15.14410342 9.125 16.4375 C9.71272263 17.76700927 10.30118883 19.09619008 10.89038086 20.42504883 C12.06303387 23.07170735 13.23249824 25.71973264 14.39892578 28.36914062 C36.31852213 80.20236084 36.31852213 80.20236084 66.09204102 127.67578125 C67.296875 129.27734375 67.296875 129.27734375 69 132 C68.67 132.99 68.34 133.98 68 135 C52.09568754 114.18406163 39.8160041 91.07771457 29.03613281 67.26367188 C27.759242 64.47400845 26.45393262 61.69826733 25.1484375 58.921875 C19.2003346 46.24900319 13.40107412 33.52292065 7.8125 20.6875 C7.5325116 20.04811493 7.25252319 19.40872986 6.96405029 18.74996948 C6.16512214 16.92269662 5.37344779 15.09225751 4.58203125 13.26171875 C4.13061768 12.21975342 3.6792041 11.17778809 3.21411133 10.10424805 C1.90785136 6.76439372 0.93349926 3.46033365 0 0 Z " fill="#000019" transform="translate(292,232)"/>
<path d="M0 0 C4.06159214 3.62745521 6.75287505 7.96833855 9.6875 12.5 C17.70258546 24.67908246 26.48122053 35.96753083 36 47 C36.61617188 47.72960937 37.23234375 48.45921875 37.8671875 49.2109375 C57.18138588 71.85198344 81.90656571 88.16668244 108 102 C105 103 105 103 101.62109375 101.55078125 C100.21918608 100.81864181 98.82513168 100.07134888 97.4375 99.3125 C96.68734619 98.90676758 95.93719238 98.50103516 95.16430664 98.08300781 C72.21823809 85.42015092 49.6046047 68.44441953 33 48 C32.06318298 46.88614397 31.12560485 45.77292787 30.1875 44.66015625 C23.96945552 37.21665077 18.13040344 29.56743954 12.5625 21.625 C11.99587646 20.81772461 11.42925293 20.01044922 10.84545898 19.17871094 C0 3.51002422 0 3.51002422 0 0 Z " fill="#000009" transform="translate(281,329)"/>
<path d="M0 0 C0.66 0 1.32 0 2 0 C0.66617586 4.66838448 -0.72681874 8.37179774 -4 12 C-7.39809218 12.90953645 -10.73312958 12.83772778 -14.234375 12.8046875 C-15.22753723 12.81839386 -16.22069946 12.83210022 -17.24395752 12.84622192 C-20.41309653 12.883584 -23.58067164 12.87980274 -26.75 12.875 C-28.89976415 12.89312235 -31.0495075 12.91392358 -33.19921875 12.9375 C-38.46706349 12.99444967 -43.73079474 12.99575748 -49 13 C-42.07 15.64 -35.14 18.28 -28 21 C-32.07643011 22.01910753 -32.7946306 22.01769258 -36.484375 20.671875 C-37.33773437 20.36636719 -38.19109375 20.06085938 -39.0703125 19.74609375 C-39.95460938 19.41738281 -40.83890625 19.08867187 -41.75 18.75 C-42.61882812 18.43675781 -43.48765625 18.12351562 -44.3828125 17.80078125 C-49.60480778 15.91114032 -54.80325636 13.95784295 -60 12 C-59.67 11.34 -59.34 10.68 -59 10 C-31.775 9.505 -31.775 9.505 -4 9 C-2.68 6.03 -1.36 3.06 0 0 Z " fill="#1715AD" transform="translate(144,379)"/>
<path d="M0 0 C26.4 0 52.8 0 80 0 C80 0.33 80 0.66 80 1 C71.68208072 2.03975901 63.39700168 2.21317002 55.0234375 2.31640625 C53.60282863 2.33702597 52.1822252 2.35802356 50.7616272 2.37937927 C47.05625873 2.43408273 43.35083977 2.48371588 39.64538574 2.53222656 C35.85078538 2.58282395 32.05625665 2.63830862 28.26171875 2.69335938 C20.84120682 2.80030636 13.42063456 2.90188708 6 3 C6.84884766 3.70576172 6.84884766 3.70576172 7.71484375 4.42578125 C8.44832031 5.04839844 9.18179688 5.67101562 9.9375 6.3125 C11.03384766 7.23482422 11.03384766 7.23482422 12.15234375 8.17578125 C14 10 14 10 15 13 C12 12 12 12 9.8125 9.6875 C6.50132812 6.52349132 3.14607216 4.84155562 -1 3 C-0.67 2.01 -0.34 1.02 0 0 Z " fill="#2221AE" transform="translate(74,128)"/>
<path d="M0 0 C29.78669713 4.5049858 60.44741291 27.05337913 79 50 C76 50 76 50 74.48876953 48.78173828 C73.95880371 48.21696777 73.42883789 47.65219727 72.8828125 47.0703125 C72.28275391 46.44471436 71.68269531 45.81911621 71.06445312 45.17456055 C70.42443359 44.49820557 69.78441406 43.82185059 69.125 43.125 C62.51770887 36.34328785 55.75710938 30.4587066 48 25 C47.41782715 24.58411621 46.8356543 24.16823242 46.23583984 23.73974609 C33.72152558 14.85569221 20.82000168 7.64558978 5.96313477 3.5456543 C4.29411336 3.08005291 2.64446331 2.54603801 1 2 C0.67 1.34 0.34 0.68 0 0 Z " fill="#151396" transform="translate(126,25)"/>
<path d="M0 0 C0.66 0 1.32 0 2 0 C2.30703857 0.87624023 2.61407715 1.75248047 2.93041992 2.65527344 C4.09251669 5.96632172 5.25777206 9.27622521 6.42504883 12.58544922 C6.92562927 14.00656551 7.4250172 15.42810254 7.9230957 16.85009766 C8.64726684 18.91686603 9.3752836 20.98222411 10.10546875 23.046875 C10.34433807 23.72447876 10.5832074 24.40208252 10.82931519 25.10021973 C12.70141046 30.33851442 14.85977 35.41322 17.20825195 40.45800781 C18.69492563 45.23113343 16.85559147 48.63074062 14.65245056 52.93382263 C14.33272781 53.5421846 14.01300507 54.15054657 13.68359375 54.77734375 C13.34884537 55.42514297 13.01409698 56.0729422 12.66920471 56.7403717 C11.95844827 58.11270901 11.24466891 59.48348438 10.52807617 60.8527832 C9.45901644 62.89636974 8.39958098 64.94469941 7.34179688 66.99414062 C2.78069597 75.79302692 -2.015886 84.43415583 -7 93 C-7.66 92.67 -8.32 92.34 -9 92 C-8.05216263 90.18731564 -7.10381462 88.37489724 -6.15356445 86.56347656 C-5.28809088 84.91284642 -4.42470614 83.26111965 -3.56323242 81.60839844 C-0.84793071 76.42442586 1.94382281 71.29398649 4.81640625 66.1953125 C5.45755371 65.04401855 6.09870117 63.89272461 6.75927734 62.70654297 C8.02982929 60.42894428 9.31501413 58.15943797 10.61572266 55.89892578 C11.20015137 54.84431152 11.78458008 53.78969727 12.38671875 52.703125 C12.91483154 51.77145508 13.44294434 50.83978516 13.98706055 49.87988281 C16.03072409 44.06955379 13.73600644 38.76650759 11.6015625 33.25390625 C11.36593597 32.63909897 11.13030945 32.02429169 10.88754272 31.39085388 C10.14019898 29.44535015 9.38288613 27.50391775 8.625 25.5625 C8.12431892 24.26523662 7.62431353 22.96771224 7.125 21.66992188 C4.57016645 15.0347732 4.57016645 15.0347732 1.97949219 8.41357422 C0.82613918 5.4488742 0 3.21291444 0 0 Z " fill="#01015D" transform="translate(209,172)"/>
<path d="M0 0 C4.97886039 1.65962013 7.37905932 6.12106747 10.55029297 10.16308594 C12.12298409 12.15583231 13.71928496 14.12835228 15.31640625 16.1015625 C23.46758488 26.26310121 30.48714604 36.73034051 37 48 C38.10416256 49.88672115 39.2083294 51.7734398 40.3125 53.66015625 C41.41818978 55.56422051 42.52238461 57.46915376 43.625 59.375 C44.14658691 60.27323486 44.66817383 61.17146973 45.20556641 62.09692383 C45.68687012 62.93892334 46.16817383 63.78092285 46.6640625 64.6484375 C47.09154785 65.39270996 47.5190332 66.13698242 47.95947266 66.90380859 C48.96899176 68.93753243 49.54572865 70.78252921 50 73 C49.34 73 48.68 73 48 73 C47.74943848 72.50822266 47.49887695 72.01644531 47.24072266 71.50976562 C41.34171439 59.98462839 35.12554388 48.81317253 28 38 C27.62520508 37.43087891 27.25041016 36.86175781 26.86425781 36.27539062 C19.2241273 24.77136357 10.81548301 13.74917226 1.36328125 3.671875 C0 2 0 2 0 0 Z " fill="#030257" transform="translate(204,75)"/>
<path d="M0 0 C19.14 0 38.28 0 58 0 C57.67 0.66 57.34 1.32 57 2 C40.83 2 24.66 2 8 2 C8 2.99 8 3.98 8 5 C5.03 4.01 2.06 3.02 -1 2 C-0.67 1.34 -0.34 0.68 0 0 Z " fill="#000017" transform="translate(325,128)"/>
<path d="M0 0 C-1 3 -1 3 -2.671875 3.95703125 C-3.35765625 4.23933594 -4.0434375 4.52164063 -4.75 4.8125 C-12.20298531 8.35266802 -15.3112327 14.50630595 -18 22 C-19.83390723 28.22218524 -20.48844457 34.55170915 -21 41 C-21.66 40.67 -22.32 40.34 -23 40 C-23.81650692 28.16064961 -20.38665723 16.46945257 -12.640625 7.41015625 C-11.3125 6 -11.3125 6 -9 4 C-8.34 4 -7.68 4 -7 4 C-7 3.34 -7 2.68 -7 2 C-13.6 2 -20.2 2 -27 2 C-27 1.67 -27 1.34 -27 1 C-17.98185679 -0.14516104 -9.0719352 -0.09471858 0 0 Z " fill="#0C0B93" transform="translate(171,128)"/>
<path d="M0 0 C0 0.33 0 0.66 0 1 C-0.90093384 1.12060791 -0.90093384 1.12060791 -1.82006836 1.24365234 C-4.52724957 1.61139462 -7.23229515 1.9930023 -9.9375 2.375 C-11.35579102 2.56449219 -11.35579102 2.56449219 -12.80273438 2.7578125 C-14.15141602 2.95117188 -14.15141602 2.95117188 -15.52734375 3.1484375 C-16.77632446 3.32125244 -16.77632446 3.32125244 -18.05053711 3.49755859 C-19.01552124 3.74626709 -19.01552124 3.74626709 -20 4 C-20.33 4.66 -20.66 5.32 -21 6 C-20.35417969 5.9278125 -19.70835938 5.855625 -19.04296875 5.78125 C-5.81395041 4.47825503 8.01139332 3.73095742 21 7 C21 7.66 21 8.32 21 9 C19.85329834 8.83628906 18.70659668 8.67257813 17.52514648 8.50390625 C13.19410565 7.96455496 8.95659359 7.88734165 4.59765625 7.9375 C3.45290077 7.94317993 3.45290077 7.94317993 2.28501892 7.94897461 C-0.1225483 7.96107239 -2.52998865 7.97972622 -4.9375 8 C-8.13411083 8.02650956 -11.33066512 8.04649863 -14.52734375 8.0625 C-15.2626683 8.07079834 -15.99799286 8.07909668 -16.75559998 8.08764648 C-18.50395649 8.09620452 -20.2524364 8.05334036 -22 8 C-23 7 -23 7 -23.125 4.5 C-23 2 -23 2 -22 1 C-19.43207959 0.76009048 -16.88617827 0.57655613 -14.3125 0.4375 C-13.24999023 0.37272461 -13.24999023 0.37272461 -12.16601562 0.30664062 C-8.10502063 0.07040546 -4.06966073 -0.0448624 0 0 Z " fill="#1B19C7" transform="translate(88,20)"/>
<path d="M0 0 C4.06159214 3.62745521 6.75287505 7.96833855 9.6875 12.5 C16.60373655 23.00935959 23.97567647 32.91881899 32.17138672 42.46875 C35.3479606 46.1810082 38.26953051 49.95137283 41 54 C26.9076324 48.17088431 15.40751978 25.77647203 7.3125 13.75 C6.69987305 12.84459473 6.08724609 11.93918945 5.45605469 11.00634766 C4.88918945 10.15347168 4.32232422 9.3005957 3.73828125 8.421875 C3.23337158 7.66487305 2.72846191 6.90787109 2.20825195 6.12792969 C1.03484602 4.06136955 0.4431416 2.32262786 0 0 Z " fill="#000028" transform="translate(281,329)"/>
<path d="M0 0 C0 0.99 0 1.98 0 3 C-0.51949219 3.21914062 -1.03898437 3.43828125 -1.57421875 3.6640625 C-7.67672998 6.4389567 -11.51038692 9.48733132 -14.15625 15.7265625 C-15.16884703 18.46780731 -16.10880891 21.21721214 -17 24 C-17.33 24.99 -17.66 25.98 -18 27 C-18.66 27 -19.32 27 -20 27 C-18.29609877 17.39619305 -15.76102606 10.20882085 -8 4 C-15.92 3.67 -23.84 3.34 -32 3 C-32 2.67 -32 2.34 -32 2 C-27.88518795 1.24229215 -23.90659766 0.82844645 -19.7265625 0.68359375 C-17.99599609 0.62075195 -17.99599609 0.62075195 -16.23046875 0.55664062 C-14.44576172 0.49766602 -14.44576172 0.49766602 -12.625 0.4375 C-10.80548828 0.37272461 -10.80548828 0.37272461 -8.94921875 0.30664062 C-5.96624968 0.20094487 -2.98320258 0.09884679 0 0 Z " fill="#0F0E6D" transform="translate(73,128)"/>
<path d="M0 0 C2.8975562 2.6640535 4.66325911 4.90270582 6.140625 8.546875 C6.48867187 9.39121094 6.83671875 10.23554688 7.1953125 11.10546875 C7.54335937 11.97816406 7.89140625 12.85085937 8.25 13.75 C8.61351562 14.63816406 8.97703125 15.52632812 9.3515625 16.44140625 C10.24342195 18.6241149 11.12584347 20.81015519 12 23 C9 22 9 22 7.92504883 20.23413086 C7.60560303 19.48526611 7.28615723 18.73640137 6.95703125 17.96484375 C6.60576172 17.15595703 6.25449219 16.34707031 5.89257812 15.51367188 C5.53615234 14.66353516 5.17972656 13.81339844 4.8125 12.9375 C4.44447266 12.08349609 4.07644531 11.22949219 3.69726562 10.34960938 C2.7884879 8.23699623 1.88993798 6.12060231 1 4 C-4.13652035 12.47525858 -8.67565069 21.14011167 -13.03271484 30.03320312 C-14.67094548 33.36424452 -16.33695732 36.68128955 -18 40 C-18.66 40 -19.32 40 -20 40 C-18.28704136 33.8479717 -15.22441072 28.42397974 -12.25 22.8125 C-11.73695313 21.83474609 -11.22390625 20.85699219 -10.6953125 19.84960938 C-7.19544582 13.19722459 -3.61673876 6.58947824 0 0 Z " fill="#01005A" transform="translate(227,220)"/>
<path d="M0 0 C0.66 0.33 1.32 0.66 2 1 C-13.12009068 31.43713644 -13.12009068 31.43713644 -20.94921875 46.1171875 C-23.03939991 50.04262539 -25.02545367 54.01524962 -27 58 C-27.66 57.67 -28.32 57.34 -29 57 C-27.40601537 51.33352283 -24.67308531 46.53587608 -21.8125 41.4375 C-16.62987018 32.08060338 -11.64794087 22.63281932 -6.75 13.125 C-6.41231598 12.46982391 -6.07463196 11.81464783 -5.72671509 11.13961792 C-3.81444607 7.42813563 -1.90566831 3.71487686 0 0 Z " fill="#1A1978" transform="translate(225,220)"/>
<path d="M0 0 C3.30481882 3.81402464 5.57567427 7.8076513 7.70703125 12.34765625 C8.03668381 13.04136826 8.36633636 13.73508026 8.70597839 14.44981384 C9.39594127 15.90800903 10.08235563 17.36788803 10.76538086 18.8293457 C11.81386139 21.06540338 12.88186115 23.2914208 13.95117188 25.51757812 C14.62099899 26.93953607 15.28966002 28.36204402 15.95703125 29.78515625 C16.43811089 30.78060204 16.43811089 30.78060204 16.9289093 31.79615784 C19.07009184 36.4455067 19.07009184 36.4455067 18.69018555 39.45092773 C18.3485437 40.21771851 18.3485437 40.21771851 18 41 C15.7741988 36.42947918 13.5505608 31.85791455 11.32885742 27.28540039 C10.57390687 25.73238233 9.81838218 24.17964322 9.06225586 22.62719727 C7.97095429 20.38632423 6.88177137 18.14443185 5.79296875 15.90234375 C5.45847214 15.21663803 5.12397552 14.53093231 4.77934265 13.82444763 C2.72913317 9.59628363 0.82014084 5.33237853 -1 1 C-0.67 0.67 -0.34 0.34 0 0 Z " fill="#09087D" transform="translate(175,92)"/>
<path d="M0 0 C0.33 0.66 0.66 1.32 1 2 C0.35083008 3.66064453 0.35083008 3.66064453 -0.73046875 5.6328125 C-1.12169922 6.35726563 -1.51292969 7.08171875 -1.91601562 7.828125 C-2.33560547 8.58609375 -2.75519531 9.3440625 -3.1875 10.125 C-3.99440402 11.60627307 -4.80039775 13.08804239 -5.60546875 14.5703125 C-6.00685059 15.30024414 -6.40823242 16.03017578 -6.82177734 16.78222656 C-7.99411273 18.98891836 -9.0537019 21.22966503 -10.11328125 23.4921875 C-12 27 -12 27 -15 28 C-13.3042553 21.99423752 -10.39417811 16.68045561 -7.5 11.1875 C-7.00113281 10.22134766 -6.50226563 9.25519531 -5.98828125 8.25976562 C-5.26705078 6.88401367 -5.26705078 6.88401367 -4.53125 5.48046875 C-4.09361328 4.64410889 -3.65597656 3.80774902 -3.20507812 2.94604492 C-2 1 -2 1 0 0 Z " fill="#232298" transform="translate(168,331)"/>
<path d="M0 0 C13.53 0 27.06 0 41 0 C41 0.33 41 0.66 41 1 C23.675 1.495 23.675 1.495 6 2 C8.64 4.31 11.28 6.62 14 9 C14.33 9.99 14.66 10.98 15 12 C12 11 12 11 9.8125 8.6875 C6.50132812 5.52349132 3.14607216 3.84155562 -1 2 C-0.67 1.34 -0.34 0.68 0 0 Z " fill="#1A17BB" transform="translate(74,129)"/>
<path d="M0 0 C14.85 0 29.7 0 45 0 C45 0.33 45 0.66 45 1 C34.08731415 2.1530385 23.22739685 2.10114886 12.26733398 2.01586914 C10.17826713 2.0012477 8.08911802 2 6 2 C4.33333333 2 2.66666667 2 1 2 C0.67 1.34 0.34 0.68 0 0 Z " fill="#050436" transform="translate(2,129)"/>
<path d="M0 0 C5.17419238 0.69137915 8.50547022 4.39042397 12 8 C17.27804737 15.00653072 18.34701578 22.49811337 18 31 C15.8355986 27.7533979 15.41321529 25.6102616 14.6875 21.8125 C13.04139941 14.42150835 10.97578687 9.26159802 4.875 4.625 C3.92625 4.08875 2.9775 3.5525 2 3 C1.01 2.34 0.02 1.68 -1 1 C-0.67 0.67 -0.34 0.34 0 0 Z " fill="#000022" transform="translate(5,130)"/>
<path d="M0 0 C13.18923276 1.69743084 24.13830222 10.54752236 33 20 C29.24340575 19.40820776 27.2328971 17.75614166 24.375 15.3125 C16.88579814 9.16497601 8.94785842 4.67424138 0 1 C0 0.67 0 0.34 0 0 Z " fill="#0D0CA7" transform="translate(109,28)"/>
<path d="M0 0 C9.47357451 3.15785817 18.10780923 20.05401685 24 28 C23.01 28 22.02 28 21 28 C19.125 25.83203125 19.125 25.83203125 17 22.8125 C13.11090125 17.38697732 8.94759392 12.29354904 4.54296875 7.27856445 C2.43429259 4.84591482 1.03007432 3.09022295 0 0 Z " fill="#050568" transform="translate(204,75)"/>
<path d="M0 0 C0 0.66 0 1.32 0 2 C-0.886875 2.37125 -1.77375 2.7425 -2.6875 3.125 C-10.4237105 7.50398708 -12.40557351 13.89877611 -15 22 C-15.33 22.99 -15.66 23.98 -16 25 C-16.66 25 -17.32 25 -18 25 C-16.63565538 17.31005757 -14.85848656 9.35781789 -8.7421875 4.03515625 C-2.83661765 0 -2.83661765 0 0 0 Z " fill="#040455" transform="translate(71,130)"/>
<path d="M0 0 C14.37209302 8.27906977 14.37209302 8.27906977 18 11 C18 11.66 18 12.32 18 13 C13.8596102 11.52019402 10.41296144 9.48492647 6.75 7.0625 C5.16445312 6.02802734 5.16445312 6.02802734 3.546875 4.97265625 C1 3 1 3 0 0 Z " fill="#0F0E96" transform="translate(158,37)"/>
<path d="M0 0 C1.32 0 2.64 0 4 0 C4 0.66 4 1.32 4 2 C4.53625 2.226875 5.0725 2.45375 5.625 2.6875 C9.74700263 4.96544882 13.46706157 7.40118471 15 12 C12 11 12 11 9.8125 8.6875 C6.50132812 5.52349132 3.14607216 3.84155562 -1 2 C-0.67 1.34 -0.34 0.68 0 0 Z " fill="#1210C2" transform="translate(74,129)"/>
<path d="M0 0 C1.12894876 0.93274109 2.25300876 1.87140122 3.375 2.8125 C4.00148437 3.33457031 4.62796875 3.85664062 5.2734375 4.39453125 C7 6 7 6 9 9 C6 9 6 9 4.17578125 7.46875 C3.56089844 6.8190625 2.94601563 6.169375 2.3125 5.5 C1.68988281 4.8503125 1.06726563 4.200625 0.42578125 3.53125 C-0.04472656 3.0259375 -0.51523438 2.520625 -1 2 C-0.67 1.34 -0.34 0.68 0 0 Z " fill="#17167C" transform="translate(196,66)"/>
<path d="M0 0 C0 0.66 0 1.32 0 2 C-0.886875 2.4125 -1.77375 2.825 -2.6875 3.25 C-5.81312366 4.90127288 -8.31905614 6.71331259 -11 9 C-10.63165987 6.34795104 -10.3132309 5.26159944 -8.22265625 3.515625 C-7.50980469 3.09796875 -6.79695313 2.6803125 -6.0625 2.25 C-5.35222656 1.82203125 -4.64195313 1.3940625 -3.91015625 0.953125 C-2 0 -2 0 0 0 Z " fill="#04036C" transform="translate(71,130)"/>
<path d="M0 0 C4.06623972 1.35541324 5.53046818 3.57009469 8 7 C7.67 7.99 7.34 8.98 7 10 C5.82739389 8.71372289 4.6620717 7.42080217 3.5 6.125 C2.8503125 5.40570313 2.200625 4.68640625 1.53125 3.9453125 C0 2 0 2 0 0 Z " fill="#0A0873" transform="translate(204,75)"/>
</svg>
